<svg data-v-423bf9ae="" xmlns="http://www.w3.org/2000/svg" viewBox="0 0 378 90" class="iconLeft"><!----><!----><!----><g data-v-423bf9ae="" id="71b4bf3c-2604-494a-9559-65d56ae234ec" fill="#000000" transform="matrix(5.424954891204834,0,0,5.424954891204834,60.39224624633789,5.886077404022217)"><path d="M2.17 8.68C2.17 8.21 2.32 7.83 2.63 7.52C2.93 7.22 3.32 7.07 3.81 7.07C4.72 7.07 5.18 7.61 5.18 8.68L5.18 12.60L6.30 12.60L6.30 8.54C6.30 7.73 6.10 7.10 5.71 6.67C5.31 6.24 4.77 6.02 4.09 6.02C3.29 6.02 2.65 6.36 2.17 7.03L2.17 6.16L1.05 6.16L1.05 12.60L2.17 12.60ZM8.90 7.67C9.52 7.22 10.16 7.00 10.82 7.00C11.20 7.00 11.52 7.09 11.78 7.26C12.05 7.43 12.18 7.67 12.18 7.98L12.18 8.95C11.76 8.71 11.25 8.60 10.65 8.60C9.89 8.60 9.22 8.78 8.64 9.13C8.06 9.49 7.77 10.00 7.77 10.64C7.77 11.33 8.00 11.85 8.46 12.21C8.93 12.56 9.43 12.74 9.98 12.74C10.48 12.74 10.92 12.65 11.30 12.46C11.69 12.27 11.98 12.01 12.18 11.68L12.18 12.60L13.30 12.60L13.30 7.98C13.30 7.36 13.07 6.88 12.62 6.54C12.17 6.19 11.57 6.02 10.82 6.02C9.91 6.02 9.09 6.29 8.36 6.82ZM8.90 10.64C8.90 9.85 9.51 9.45 10.71 9.45C11.24 9.45 11.73 9.53 12.18 9.70L12.18 10.08C12.18 11.19 11.59 11.75 10.40 11.75C9.40 11.75 8.90 11.38 8.90 10.64ZM15.26 3.92L15.26 6.16L14.21 6.16L14.21 7.21L15.26 7.21L15.26 12.60L16.38 12.60L16.38 7.21L17.43 7.21L17.43 6.16L16.38 6.16L16.38 3.92ZM19.67 8.68C19.67 8.21 19.82 7.83 20.13 7.52C20.43 7.22 20.82 7.07 21.31 7.07C22.22 7.07 22.68 7.61 22.68 8.68L22.68 12.60L23.80 12.60L23.80 8.54C23.80 7.73 23.60 7.10 23.20 6.67C22.81 6.24 22.27 6.02 21.59 6.02C20.79 6.02 20.15 6.36 19.67 7.03L19.67 1.68L18.55 1.68L18.55 12.60L19.67 12.60ZM26.40 7.67C27.02 7.22 27.66 7.00 28.32 7.00C28.70 7.00 29.02 7.09 29.28 7.26C29.55 7.43 29.68 7.67 29.68 7.98L29.68 8.95C29.26 8.71 28.75 8.60 28.15 8.60C27.39 8.60 26.72 8.78 26.14 9.13C25.56 9.49 25.27 10.00 25.27 10.64C25.27 11.33 25.50 11.85 25.96 12.21C26.43 12.56 26.93 12.74 27.48 12.74C27.98 12.74 28.42 12.65 28.80 12.46C29.19 12.27 29.48 12.01 29.68 11.68L29.68 12.60L30.80 12.60L30.80 7.98C30.80 7.36 30.57 6.88 30.12 6.54C29.67 6.19 29.07 6.02 28.32 6.02C27.41 6.02 26.59 6.29 25.86 6.82ZM26.40 10.64C26.40 9.85 27.01 9.45 28.21 9.45C28.74 9.45 29.23 9.53 29.68 9.70L29.68 10.08C29.68 11.19 29.09 11.75 27.90 11.75C26.90 11.75 26.40 11.38 26.40 10.64ZM33.81 8.68C33.81 8.21 33.96 7.83 34.27 7.52C34.57 7.22 34.96 7.07 35.45 7.07C36.36 7.07 36.82 7.61 36.82 8.68L36.82 12.60L37.94 12.60L37.94 8.54C37.94 7.73 37.74 7.10 37.34 6.67C36.95 6.24 36.41 6.02 35.73 6.02C34.93 6.02 34.29 6.36 33.81 7.03L33.81 6.16L32.69 6.16L32.69 12.60L33.81 12.60ZM40.54 9.38C40.54 8.71 40.75 8.15 41.17 7.72C41.58 7.29 42.11 7.07 42.74 7.07C43.25 7.07 43.71 7.18 44.13 7.40C44.55 7.62 44.83 7.89 44.98 8.20L44.98 6.85C44.76 6.59 44.44 6.39 44.03 6.24C43.62 6.09 43.19 6.02 42.74 6.02C41.79 6.02 41.00 6.34 40.36 6.97C39.73 7.61 39.41 8.41 39.41 9.38C39.41 10.35 39.73 11.15 40.36 11.79C41.00 12.42 41.79 12.74 42.74 12.74C43.20 12.74 43.63 12.67 44.04 12.52C44.45 12.38 44.77 12.18 44.98 11.91L44.98 10.56C44.83 10.87 44.55 11.14 44.13 11.36C43.71 11.58 43.25 11.69 42.74 11.69C42.11 11.69 41.58 11.47 41.17 11.04C40.75 10.61 40.54 10.05 40.54 9.38ZM47.24 9.38C47.24 8.71 47.44 8.15 47.86 7.72C48.27 7.29 48.80 7.07 49.43 7.07C49.94 7.07 50.40 7.18 50.82 7.40C51.24 7.62 51.52 7.89 51.67 8.20L51.67 6.85C51.45 6.59 51.13 6.39 50.72 6.24C50.31 6.09 49.88 6.02 49.43 6.02C48.48 6.02 47.69 6.34 47.05 6.97C46.42 7.61 46.10 8.41 46.10 9.38C46.10 10.35 46.42 11.15 47.05 11.79C47.69 12.42 48.48 12.74 49.43 12.74C49.89 12.74 50.33 12.67 50.74 12.52C51.15 12.38 51.46 12.18 51.67 11.91L51.67 10.56C51.52 10.87 51.24 11.14 50.82 11.36C50.40 11.58 49.94 11.69 49.43 11.69C48.80 11.69 48.27 11.47 47.86 11.04C47.44 10.61 47.24 10.05 47.24 9.38ZM56.50 7.21L52.51 12.60L58.25 12.60L58.25 11.55L54.54 11.55L58.53 6.16L52.79 6.16L52.79 7.21Z"></path></g><defs data-v-423bf9ae=""><linearGradient data-v-423bf9ae="" gradientTransform="rotate(25)" id="c1038f89-0b95-4d49-afd5-c8823cfc9f32" x1="0%" y1="0%" x2="100%" y2="0%"><stop data-v-423bf9ae="" offset="0%" style="stop-color: rgb(0, 125, 232); stop-opacity: 1;"></stop><stop data-v-423bf9ae="" offset="100%" style="stop-color: rgb(161, 195, 219); stop-opacity: 1;"></stop></linearGradient></defs><g data-v-423bf9ae="" id="f71c1ada-8642-41bb-a720-a12b02c12cd4" transform="matrix(2.8125,0,0,2.8125,-21.194406509399414,0)" stroke="none" fill="url(#c1038f89-0b95-4d49-afd5-c8823cfc9f32)"><path d="M18.396 26.495L7.807 15.905 18.432 5.28l.707.707-9.918 9.918 9.882 9.883z"></path><path d="M23.194 1v4.194H19V1h4.194m1-1H18v6.194h6.194V0zM23.194 26.806V31H19v-4.194h4.194m1-1H18V32h6.194v-6.194z"></path></g><!----></svg>